<svg width="28" height="41" viewBox="0 0 28 41" fill="none" xmlns="http://www.w3.org/2000/svg">
<path d="M14 0.679688C6.40594 0.679688 0.25 6.82875 0.25 14.4143C0.25 21.9999 14 40.635 14 40.635C14 40.635 27.75 21.9999 27.75 14.4143C27.75 6.82875 21.5941 0.679688 14 0.679688ZM2.75 14.4143C2.75 8.21751 7.79625 3.1769 14 3.1769C20.2038 3.1769 25.25 8.21751 25.25 14.4143C25.25 18.7308 18.9975 29.1513 14 36.3392C9.0025 29.1513 2.75 18.7308 2.75 14.4143ZM14 8.17131C10.5478 8.17131 7.75 10.966 7.75 14.4143C7.75 17.8627 10.5478 20.6574 14 20.6574C17.4522 20.6574 20.25 17.8627 20.25 14.4143C20.25 10.966 17.4522 8.17131 14 8.17131ZM14 18.1601C11.9322 18.1601 10.25 16.4798 10.25 14.4143C10.25 12.3488 11.9322 10.6685 14 10.6685C16.0678 10.6685 17.75 12.3488 17.75 14.4143C17.75 16.4798 16.0678 18.1601 14 18.1601Z" fill="#BB8E5D"/>
</svg>
