<svg width="32" height="43" viewBox="0 0 32 43" fill="none" xmlns="http://www.w3.org/2000/svg">
<path d="M12.4182 14.0736C12.4174 14.0734 12.5145 14.0916 12.719 14.1185C12.9027 14.1427 13.1289 14.1681 13.3579 14.1875C13.5904 14.2072 13.8059 14.219 13.9746 14.2198C14.0448 14.2202 14.0956 14.2185 14.1289 14.2164L14.1973 14.2027C15.0279 14.0364 15.5836 13.6065 15.8091 12.9434C16.0589 12.2091 16.053 10.7729 14.7481 8.3195L12.4182 14.0736ZM12.4182 14.0736L12.409 14.0715L12.3844 14.0662C12.3674 14.0627 12.3492 14.0593 12.3299 14.056C12.2914 14.0495 12.2476 14.0435 12.1992 14.0391C12.1036 14.0305 11.9819 14.0278 11.8427 14.0441C11.5553 14.0779 11.1866 14.1959 10.8607 14.4979C10.2186 15.0928 10.1984 15.9362 10.2639 16.5141C10.4029 17.7403 11.1763 19.8965 13.3145 23.948C15.4618 28.0508 16.9512 29.9565 18.079 30.7752C18.6753 31.208 19.3703 31.4798 20.1016 31.3387C20.4551 31.2704 20.7333 31.1186 20.9351 30.9588C21.0339 30.8806 21.1128 30.8018 21.1743 30.7318C21.2052 30.6966 21.2321 30.6632 21.2553 30.6323C21.267 30.6168 21.2778 30.602 21.2877 30.5878L21.3021 30.567L21.3088 30.557L21.3121 30.5521C21.3137 30.5496 21.3152 30.5472 20.0608 29.7249L21.3152 30.5472L21.4671 30.3156L21.4708 30.2984C21.5516 30.2093 21.6649 30.0952 21.8027 29.9658C22.1283 29.6599 22.476 29.3747 22.6026 29.282L22.6304 29.2616L22.6573 29.24C23.2769 28.7409 23.9272 28.5901 24.6136 28.8321C25.3803 29.1023 26.4972 29.9689 27.6913 32.2189L27.6921 32.2205C29.1143 34.8923 29.8175 36.7967 29.8992 38.1013C29.9375 38.7146 29.831 39.1001 29.6792 39.3598C29.5311 39.6131 29.2588 39.8858 28.7098 40.1317C23.6608 42.348 19.0941 41.1157 16.3754 38.5129C16.3585 38.49 16.3383 38.4625 16.3148 38.4303C16.2269 38.3096 16.0934 38.1237 15.9168 37.8709C15.5637 37.3652 15.0386 36.5919 14.3626 35.5367C13.0107 33.4264 11.0553 30.189 8.66576 25.7123L7.47152 26.3498H7.34248L8.67034 25.6521C6.31221 21.1642 4.66839 17.7443 3.61655 15.4525C3.09063 14.3066 2.71271 13.4428 2.46748 12.8685C2.34487 12.5814 2.25544 12.3666 2.19727 12.2252C2.19028 12.2082 2.18374 12.1923 2.17765 12.1774C1.96031 10.5383 2.42212 8.62004 3.49879 6.84182C4.60417 5.01617 6.29246 3.45124 8.3091 2.5879L8.31973 2.58335L8.33028 2.57864C8.87648 2.33478 9.30817 2.2919 9.6793 2.35315C10.0617 2.41625 10.5049 2.61103 11.0295 3.04085C12.127 3.93998 13.3284 5.65239 14.7479 8.31912L12.4182 14.0736ZM14.1646 14.2133C14.1648 14.2133 14.1626 14.2136 14.1577 14.2141C14.1621 14.2135 14.1644 14.2132 14.1646 14.2133Z" stroke="#BB8E5D" stroke-width="3"/>
</svg>
