<svg width="18" height="30" viewBox="0 0 18 30" fill="none" xmlns="http://www.w3.org/2000/svg">
<path d="M3.7989 29.8327C3.44735 29.4633 3.50828 25.6219 3.86922 25.3989C4.03913 25.2938 6.97396 25.3074 10.3911 25.429L16.604 25.6501V27.6691V29.688H14.1088C12.7365 29.688 9.90902 29.777 7.82558 29.8857C5.74214 29.9944 3.93013 29.9705 3.7989 29.8327ZM4.33087 23.7823C3.83795 21.1549 4.85821 18.8192 8.23292 14.8494L9.6236 13.2134L8.42124 13.0457C7.75995 12.9534 6.85745 12.7843 6.41569 12.6699C5.80497 12.5116 5.39183 12.6664 4.69166 13.3152C3.91256 14.0372 3.57271 14.142 2.4837 13.9959C1.01458 13.7989 0.378906 13.1224 0.378906 11.7561C0.378906 10.9809 0.88735 10.3144 3.15574 8.11643C4.683 6.63655 6.32066 5.29045 6.79499 5.1251C7.34439 4.93358 7.59496 4.66171 7.48535 4.37605C7.37766 4.09543 7.62297 3.8099 8.14096 3.61296C8.82804 3.35173 8.97011 3.09426 8.97726 2.09738L8.98584 0.896484L10.0517 2.04222C10.6379 2.67237 11.7676 3.50268 12.5622 3.88735C14.6829 4.91394 16.465 7.00335 17.1134 9.22316C17.9147 11.9667 17.7819 14.1416 16.591 17.7782C15.9094 19.8595 15.5446 21.6178 15.5231 22.9258L15.4905 24.9125L10.017 24.9142L4.54352 24.9159L4.33087 23.7823Z" fill="black"/>
</svg>
